<?xml version="1.0" encoding="utf-8"?>
<!-- Generator: Adobe Illustrator 15.0.0, SVG Export Plug-In . SVG Version: 6.00 Build 0)  -->
<!DOCTYPE svg PUBLIC "-//W3C//DTD SVG 1.1//EN" "http://www.w3.org/Graphics/SVG/1.1/DTD/svg11.dtd">
<svg version="1.1" id="レイヤー_1" xmlns="http://www.w3.org/2000/svg" xmlns:xlink="http://www.w3.org/1999/xlink" x="0px"
	 y="0px" width="480px" height="270px" viewBox="0 0 480 270" enable-background="new 0 0 480 270" xml:space="preserve">
<rect fill="#424242" width="480" height="270"/>
<path fill="#616161" d="M264.636,165.761c-1.915,0.915-5.578,1.708-8.308,1.778c-8.243,0.223-9.84-5.786-9.911-10.151v-32.053
	h20.678v-15.589h-20.602V83.515c0,0-14.835,0-15.082,0c-0.247,0-0.68,0.219-0.74,0.771c-0.882,8.028-4.64,22.117-20.259,27.748
	v13.301h10.418v33.645c0,11.519,8.5,27.88,30.928,27.499c7.567-0.133,15.97-3.301,17.83-6.029L264.636,165.761L264.636,165.761z"/>
</svg>
